<svg id="visual" viewBox="0 0 900 600" width="900" height="600" xmlns="http://www.w3.org/2000/svg" xmlns:xlink="http://www.w3.org/1999/xlink" version="1.1"><rect width="900" height="600" fill="#ff7700"></rect><g><g transform="translate(290 218)"><path d="M100.4 -33.5C111.7 2.2 89.8 47.9 55.3 72C20.7 96.2 -26.5 98.9 -61.1 75.7C-95.8 52.5 -117.8 3.6 -105.5 -33.5C-93.2 -70.5 -46.6 -95.6 -1 -95.3C44.5 -94.9 89.1 -69.2 100.4 -33.5Z" stroke="#931F1F" fill="none" stroke-width="20"></path></g><g transform="translate(705 446)"><path d="M61.4 -22.1C69.4 4.4 58.4 34.9 37.4 49.8C16.4 64.6 -14.8 63.9 -37.3 48.3C-59.9 32.6 -73.8 2.1 -66.2 -24C-58.5 -50.1 -29.3 -71.8 -1.2 -71.4C26.8 -71 53.5 -48.5 61.4 -22.1Z" stroke="#931F1F" fill="none" stroke-width="20"></path></g><g transform="translate(890 73)"><path d="M59.7 -20.2C68.2 6.6 59.4 38.1 36.6 56C13.9 73.8 -22.9 77.9 -47.5 61.1C-72.1 44.2 -84.6 6.3 -74.6 -22.5C-64.7 -51.4 -32.3 -71.2 -3.4 -70.1C25.6 -69 51.3 -47 59.7 -20.2Z" stroke="#931F1F" fill="none" stroke-width="20"></path></g></g></svg>